<?xml version="1.0" encoding="UTF-8" standalone="no"?>
<svg id="svg2" xmlns:rdf="http://www.w3.org/1999/02/22-rdf-syntax-ns#" xmlns="http://www.w3.org/2000/svg" height="328.01mm" width="149.04mm" version="1.1" xmlns:cc="http://creativecommons.org/ns#" xmlns:dc="http://purl.org/dc/elements/1.1/" viewBox="0 0 528.08052 1162.2309">
<g id="layer1" transform="translate(-138.82 91.61)">
<path id="path210" d="m392.25-91.61v107.6h-4.2685c-4.6855 0-9.0982 1.8325-12.426 5.162-0.3402 0.33996-0.6638 0.69046-0.9718 1.0523v0.003c-2.1548 2.5323-3.5177 5.5796-3.9888 8.8356-1.1831 0.79331-2.3032 1.7051-3.3346 2.735-3.064 3.064-5.1263 6.8811-6.0152 11.016-2.4815 1.0891-4.7594 2.6347-6.6646 4.5505-4.1121 4.1136-6.3778 9.5631-6.3778 15.344 0 0.68983 0.039 1.3696 0.1019 2.043 0.023 0.24519 0.064 0.48481 0.095 0.7276 0.054 0.42131 0.1139 0.84034 0.192 1.2538 0.052 0.27684 0.1128 0.54936 0.1753 0.82243 0.09 0.39167 0.1902 0.77801 0.301 1.1613 0.073 0.25354 0.1455 0.50639 0.2276 0.75604 0.1242 0.37678 0.2636 0.74657 0.4076 1.1139 0.1004 0.2569 0.1959 0.51583 0.3057 0.76789 0.1713 0.3919 0.3613 0.77239 0.5546 1.1518 0.214 0.42112 0.4449 0.83 0.685 1.2348 0.1749 0.29413 0.3426 0.59193 0.5309 0.87691 0.2141 0.32515 0.447 0.63534 0.6778 0.94803 0.1364 0.18416 0.2705 0.37019 0.4124 0.54985 0.2638 0.33482 0.5397 0.65789 0.8224 0.97646 0.118 0.13256 0.2367 0.26373 0.3579 0.39343 0.3088 0.33151 0.624 0.65527 0.9527 0.96697 0.094 0.0884 0.1917 0.17158 0.2868 0.25834 2.0636 1.8886 4.4861 3.3788 7.1599 4.3633 0.033 0.0125 0.066 0.0258 0.1 0.0379 0.5394 0.19556 1.0867 0.37077 1.6448 0.52378l-20.167 331.4v0.002l-6.0034 37.854-27.862 175.66h-26.746l18.2 52.293v0.003l-24.509 95.385-14.412 56.085h-37.672v0.003 74.754h0.9006l-87.1 161.56h114.16l40.521-74.076 50.691-32.162 6.3518-0.2465 48.373-1.8676 3.9698-0.1517 58.671 2.2658 50.759 32.204 40.431 74.033h114.16l-87.073-161.56h0.8769v-74.756h-37.672l-38.919-151.47 18.197-52.293h-37.037l-33.863-213.52-20.145-331.4c3.5898-0.98559 6.8865-2.8754 9.5892-5.5862 4.1122-4.1121 6.3778-9.5607 6.3778-15.341 0-8.7157-5.1676-16.452-13.04-19.889-1.1983-5.5804-4.5235-10.513-9.3546-13.753-1.2316-8.4988-8.5489-15.055-17.389-15.055h-4.2661v-107.6h-4.2685-6.6646zm-4.2685 113.75h19.468c4.2017 0 7.8717 2.281 9.8618 5.662-1.5745-0.35191-3.1886-0.53801-4.8207-0.53801h-13.576v-0.002h-15.972c-1.2218 0-2.4338 0.10587-3.6262 0.30574-0.3967 0.0665-0.7929 0.14258-1.185 0.22988 0.4884-0.82363 1.0718-1.6004 1.768-2.2966 0.5419-0.54189 1.1276-1.0218 1.7491-1.4386 0.6216-0.41688 1.2803-0.76982 1.9648-1.0547 1.0269-0.42732 2.1157-0.70219 3.2375-0.81295 0.374-0.0369 0.7502-0.0545 1.1305-0.0545zm-18.401 31.1v0.0521h29.334 27.594c0.8509 0.0729 1.6878 0.20772 2.4933 0.47166 4.7765 1.5472 7.9847 5.9386 7.9847 10.926 0 3.0443-1.1994 5.9205-3.3821 8.1032-2.1675 2.1736-5.0403 3.3702-8.0937 3.3702h-26.597-28.995c-1.5817 0-3.0905-0.32161-4.4628-0.90298-0.3431-0.14532-0.6774-0.30663-1.0026-0.48349-0.3251-0.17685-0.6403-0.36953-0.9456-0.57591-0.6106-0.41289-1.1799-0.88125-1.6994-1.4007-2.0778-2.0777-3.363-4.9462-3.363-8.1103 0-0.38055 0.017-0.75859 0.054-1.1329 0.2595-2.6198 1.4184-5.0622 3.3323-6.9774 1.2771-1.2848 2.8645-2.2552 4.6073-2.818 1.0011-0.32764 2.0588-0.48957 3.1403-0.52142zm19.342 53.419h5.5697l-2.8583 2.5407-2.7114-2.5407zm11.675 0h5.5744l-2.7161 2.5431-2.8583-2.5431zm7.8733 1.3675 0.3626 5.9536-3.4484-3.0645 3.0858-2.8891zm-21.504 0.32707 2.7375 2.562-3.0574 2.7161 0.3199-5.2781zm9.4613 0.0261v5.3113l-2.9057-2.7232 2.9057-2.5881zm2.5738 0.30573 2.5668 2.2824-2.5668 2.4032v-4.6856zm4.4984 3.9959 3.2422 2.882-2.9744 3.3844-3.2825-3.4437 3.0147-2.8227zm-11.912 0.002 3.0147 2.8204-3.2825 3.4437-2.9744-3.3821 3.2422-2.882zm17.42 4.1997 0.4906 8.0771-3.9485-4.1428 3.4579-3.9343zm-22.584 0.39108 3.1142 3.5432-3.555 3.7281 0.4408-7.2713zm10.004 0.0426v7.4396l-3.4034-3.8703 3.4034-3.5693zm2.5738 0.36023 3.0622 3.2091-3.0622 3.484v-6.693zm4.8444 5.079 3.612 3.7897-3.5124 3.7423-3.5338-3.6262 3.4342-3.9058zm-12.604 0.002 3.4342 3.9035-3.5337 3.6238-3.5124-3.74 3.6119-3.7873zm18.439 5.1786 0.5333 8.7763-4.4699-4.5837 3.9366-4.1926zm-23.928 0.36733 3.593 3.8253v0.002l-4.0789 4.1808 0.4859-8.0084zm10.675 0.24649v7.3685l-3.5243-3.7542 3.5243-3.6143zm2.5738 0.3484 3.183 3.2659-3.183 3.3892v-6.6551zm-7.8946 5.1098 3.4911 3.7186-4.0078 3.6475-3.5811-3.164 4.0978-4.2021zm12.874 0 4.0979 4.2021-3.5812 3.164-4.0077-3.6475 3.491-3.7186zm-7.5533 5.5317v6.9893l-3.894-3.4437 3.894-3.5456zm13.962 0.0616 0.4597 7.551-4.4367-4.0362 3.977-3.5148zm-11.388 0.24885 3.5575 3.2375-3.5575 3.1427v-6.3802zm-13.955 0.0594 3.6286 3.2066-4.0481 3.6854 0.4195-6.8921zm5.5696 4.9202 3.8703 3.4176-4.5126 3.9793-3.5906-3.5456 4.2329-3.8513zm13.855 0 4.2329 3.8513-3.5906 3.5456-4.5102-3.9793 3.8679-3.4176zm-8.0439 5.1335v8.6412l-4.6192-4.5647 4.6192-4.0765zm14.595 0.0426 0.4764 7.8544-4.4509-3.9272 3.9745-3.9272zm-12.021 0.2607 4.278 3.7731-4.278 4.2258v-7.9989zm-14.59 0.083 3.6286 3.5835-4.0647 3.5859 0.4361-7.1694zm5.463 5.3966 4.7259 4.669-4.3751 4.3301-4.5577-5.2876 4.2069-3.7115zm15.339 0 4.2068 3.7115-4.5576 5.2876-4.3751-4.3301 4.7259-4.669zm6.4631 5.0316 0.6921 11.4-5.674-5.617 4.9819-5.7829zm-27.924 0.39816 4.6406 5.3848-5.2876 5.2331 0.647-10.618zm12.675 1.0499v9.7196l-4.5197-5.2449 4.5197-4.4746zm2.5738 0.33655 4.1808 4.1381-4.1808 4.8515v-8.9896zm-8.9256 5.9512 4.5979 5.3374-5.2022 5.1714-2.2255-2.4814-2.4814-2.7682 5.3112-5.2591zm14.938 0 5.3113 5.2591-4.7093 5.252-5.2023-5.1738 4.6003-5.3374zm7.5344 6.6338 0.6991 11.464-5.8042-5.7711 5.1051-5.6928zm-29.668 0.3792 1.9173 2.1378 2.8465 3.1759-5.4156 5.3895 0.1849-3.0384 0.4669-7.6647zm13.547 0.20855v11.044l-5.2355-5.8374 5.2355-5.207zm2.5738 0.33656 4.8966 4.8704-4.8966 5.4582v-10.329zm-9.6366 6.6859 5.29 5.8991-5.4179 5.3848-5.3445-5.8398 5.4724-5.444zm16.358 0 5.4725 5.444-5.3421 5.8398-5.4203-5.3848 5.2899-5.8991zm7.7027 6.8163 0.7774 12.763-6.5248-6.4797 5.7474-6.283zm-31.424 0.37209 5.4084 5.9109-6.1384 6.0982 0.73-12.009zm14.426 0.57592v3.0432 8.3355l-5.4535-5.9583 5.4535-5.4203zm2.5738 0.33893 5.1123 5.0814-5.1123 5.5862v-10.668zm6.9396 6.8945 6.1976 6.1574-5.8635 6.1858-6.9821-5.0766 6.648-7.2666zm-16.794 0.002 6.6456 7.2618-6.9798 5.079-5.8635-6.1858 6.1977-6.155zm25.234 7.5273 0.6826 11.206-6.6907-4.8657 6.0081-6.3399zm-33.335 0.35787 5.6691 5.982-6.3114 4.5908 0.6423-10.573zm15.382 2.0999v10.39l-1.4813-1.5642-4.3467-4.586 5.828-4.24zm2.5738 0.24647 5.4915 3.9935-5.4915 5.7924v-9.7859zm-10.502 5.5175 6.1005 6.4394-6.283 5.854-7.4301-6.7546 7.6126-5.5388zm18.091 0 7.6126 5.5364-7.4325 6.757-6.2854-5.8517 6.1053-6.4418zm8.7739 7.9562 0.7963 13.08-7.5012-6.9845 6.7049-6.0958zm-18.937 0.30099v11.409l-6.1977-5.6384 6.1977-5.7711zm-16.363 0.009 6.3636 5.7853-7.1196 6.629 0.756-12.414zm18.937 0.31049 5.8588 5.4535-5.8588 5.3255v-10.779zm-10.663 7.2121 7.2926 6.6314-0.033 0.0308-0.01 0.002-8.1458 5.4914-6.3233-5.4392 7.2144-6.7167zm18.411 0 7.2144 6.7167-6.3233 5.4393-8.1411-5.4867-0.043-0.0379 7.2926-6.6314zm9.5821 8.0724 0.6304 10.367-7.1102-4.7922 6.4798-5.5744zm-37.234 0.29388 6.1384 5.2805-6.7357 4.5386 0.5973-9.8191zm17.33 0.83663v10.675l-6.9585-5.982 6.9585-4.6927zm2.5738 0.23227 6.6172 4.4604-6.6172 5.6881v-10.149zm-11.744 5.9512 7.1148 6.1171-7.6505 5.6881-7.2737-6.5414 7.8094-5.2639zm20.572 0 7.8117 5.2639-7.2761 6.5414-7.6481-5.6881 7.1125-6.1171zm9.3901 7.3021 0.7063 11.613-7.4562-5.5436 6.7499-6.0697zm-39.013 0.30574 6.411 5.764-7.0817 5.2663 0.6707-11.03zm18.221 0.18488v12.744l-7.7548-6.9751 7.7548-5.7687zm2.5738 0.25597 7.4136 5.5127-7.4136 6.6646v-12.177zm9.5182 7.077 7.0841 5.2686-7.897 6.8732-7.0083-5.1051 7.8212-7.0367zm-21.951 0.002 7.8211 7.0343-7.0058 5.1051-7.8994-6.8732 7.0841-5.2662zm31.524 6.5129 0.839 13.808-9.0939-6.6266 8.2549-7.1813zm-40.755 0.29389 7.9136 6.8874-8.7194 6.3565 0.8058-13.244zm19.091 1.9221v11.281l-7.0533-6.1384 7.0533-5.143zm2.5738 0.25123 6.712 4.8918-6.712 5.8398v-10.732zm-11.76 6.4465 7.1694 6.238-8.0274 6.3043-7.8283-6.2095 8.6863-6.3328zm20.605 0 8.6886 6.3328-7.8307 6.2095-8.0273-6.3043 7.1694-6.238zm11.248 7.5865 0.8367 13.77-9.1437-7.1813 8.307-6.5887zm-42.763 0.26783 7.9681 6.3209-8.7739 6.8874 0.8035-13.208zm20.098 0.0688v12.587l-7.9752-6.3256 7.9752-6.2617zm2.5739 0.26781 7.6292 5.9939-7.6292 6.0508v-12.045zm-12.628 7.6268 7.9871 6.3375-8.9304 7.141-7.9468-6.4939 8.8925-6.9845zm22.338 0 8.8925 6.9822-7.9492 6.4963-8.9327-7.141 7.9894-6.3375zm-12.284 7.98v14.483l-8.9587-7.3187 8.9587-7.1647zm2.5739 0.27727 8.6152 6.8874-8.6152 7.0367v-13.924zm21.094 0.0125 0.8674 14.249-9.2527-7.3969 8.3853-6.8518zm-44.768 0.2773 8.0463 6.5745-8.8782 7.0983 0.8319-13.673zm10.085 8.2406 8.9256 7.2903-9.165 6.8115-8.7218-6.9395 8.9612-7.1623zm24.26 0 8.9612 7.1623-8.7195 6.9395-9.1649-6.8115 8.9232-7.2903zm11.457 8.4658 0.8888 14.633-9.9684-7.4088 9.0796-7.2239zm-46.834 0.26782 8.7407 6.9537-9.0726 6.7452-0.5261 0.39105 0.858-14.09zm22.134 0.2062v14.118l-9.1744-7.2997 9.1744-6.8186zm2.5739 0.25597 8.8285 6.5627-8.8285 7.0248v-13.588zm-13.884 8.1506 9.1697 7.295-9.8357 6.9893-9.0038-7.0983 9.6698-7.186zm24.85 0 9.6674 7.186-9.0038 7.0983-9.8357-6.9893 9.1721-7.295zm12.213 8.4563 0.8935 14.668-10.258-7.2879 9.364-7.3803zm-48.942 0.26308 9.0275 7.1173-9.8879 7.0248 0.5286-8.6839 0.3318-5.4582zm23.188 0.2133v14.789l-9.8688-7.7785 9.8688-7.0106zm2.5739 0.24412 9.5253 6.7665-9.5253 7.506v-14.272zm-14.63 8.3189 9.9116 7.8117-10.198 7.2784-10.212-7.6268 10.499-7.4633zm26.341 0 10.502 7.4609-10.215 7.6292-10.198-7.2761 9.9115-7.814zm12.573 9.1247 0.9361 15.398-11.023-7.8638 10.087-7.5344zm-51.15 0.25121 9.7504 7.2832-10.658 7.6031 0.9077-14.886zm24.293 0.0688v14.865l-10.179-7.6031 10.179-7.2618zm2.5739 0.24649 9.8334 7.0154-9.8334 7.3448v-14.36zm-14.953 8.5843 10.04 7.4988-11.213 6.437-9.4849-6.3328 10.658-7.6031zm26.985 0 10.658 7.6031-9.4849 6.3328-11.213-6.437 10.04-7.4988zm13.348 8.9019 0.7584 12.462-10.442-5.9962 9.684-6.4655zm-27.955 0.22041v13.86l-11.163-7.4514 11.163-6.4086zm-25.39 0.005 4.9605 3.311 4.387 2.9294-6.6054 3.7921-3.4744 1.998 0.5072-8.3378 0.2251-3.6926zm27.964 0.19199 10.817 6.2119-10.817 7.2239v-13.436zm13.308 7.641 12.068 6.93-12.77 7.404-10.601-6.7878 11.303-7.5462zm-29.533 0.002 11.298 7.5439-10.599 6.7878-12.767-7.4016 12.068-6.93zm13.651 9.0939v12.746l-10.445-6.0578 9.8192-6.2877 0.6256-0.40054zm29.01 0.1967 0.8793 14.462-12.27-7.8591 11.39-6.603zm-26.436 0.0261 10.101 6.4679-10.101 5.8564v-12.324zm-29.019 0.1659 1.2561 0.72997 9.7978 5.681-9.1507 5.8588-2.7564 1.7657 0.82-13.481 0.033-0.5546zm13.559 7.8614 11.436 6.629-0.1185 0.0687 0.2204 0.13515-13.244 8.1056-10.471-7.141 12.177-7.7975zm28 0 12.177 7.7975-10.468 7.141-13.246-8.1056 0.2227-0.13515-0.1185-0.0688 11.433-6.629zm-15.114 9.0228v15.87l-12.263-8.3639 12.263-7.506zm30.048 0.009 0.884 14.545-11.703-7.1647 10.819-7.3803zm-27.474 0.20145 11.917 7.295-11.917 8.1293v-15.424zm-30.062 0.0236 10.488 7.1552-11.345 6.9419 0.8579-14.097zm12.817 8.7431 12.376 8.4421-12.521 8.4516-11.495-9.767 11.639-7.1267zm31.569 0 11.642 7.1244-11.495 9.7694-12.526-8.4516 12.379-8.4421zm14.37 8.1862 3.2518 20.499-15.261-10.298 12.009-10.201zm-60.003 0.25598 11.701 9.9447-10.945 7.3874-3.9248 2.6497 3.1687-19.982zm28.734 1.5595v19.482l-12.779-10.86 12.779-8.6222zm2.5739 0.23462 12.436 8.3876-12.436 10.566v-18.953zm-17.569 9.8808 12.891 10.952-15.164 10.554-12.812-11.326 15.085-10.179zm32.218 0 15.088 10.179-12.812 11.326-15.166-10.554 12.891-10.952zm17.726 11.281 3.74 23.584-17.017-11.846 13.277-11.739zm-67.366 0.26781 12.976 11.471-16.631 11.575 3.6546-23.046zm32.418 1.0713v13.602l-1.512 9.2171-13.772-12.177 15.284-10.642zm2.5739 0.23703 14.941 10.402-13.474 11.912-1.4671-8.9446v-13.369zm17.114 11.914 19.56 13.614 0.016 0.10663h-31.787-2.8915l-0.052-0.32234 15.154-13.398zm-37.148 0.003 15.458 13.663-0.01 0.0545h-34.679l0.059-0.37447 19.171-13.343zm-17.728 18.693h30.092l-16.586 14.488-13.507-14.488zm42.806 0h30.092l-13.504 14.488-16.588-14.488zm32.972 3.3797 4.6809 29.512-17.742-15.5 13.061-14.012zm-78.612 0.0474 4.0125 4.3064 9.0015 9.658-14.384 12.568-3.2943 2.8772 4.6642-29.41zm34.423 1.2751-1.2396 7.5557-2.8346 17.259-10.921-11.715 14.995-13.099zm9.7835 0.0545 14.934 13.045-10.878 11.67-4.0552-24.715zm-28.104 15.948 5.6762 6.0887 7.6695 8.2264-0.775 4.7211-19.764 14.934-14.059-15.405 21.252-18.565zm46.363 0 21.252 18.565-14.059 15.405-19.705-14.889-0.7892-4.8136 13.301-14.268zm22.634 23.577 3.9745 25.063-15.889-12.007 11.914-13.057zm-91.586 0.0474 11.872 13.009-15.832 11.962 2.3179-14.618 1.6425-10.352zm34.079 1.9932-0.4077 2.4885-3.6025 21.942-11.556-12.666 15.566-11.765zm23.442 0.0426 15.51 11.72-11.516 12.621-3.9936-24.34zm-42.538 14.386 11.89 13.031 2.2871 2.5052-0.903 5.4985-18.46 12.765-15.337-15.313 0.4858-3.0526 0.052-0.3318 6.2451-4.7188 13.739-10.383zm61.574 0 20.044 15.145 0.5214 3.3015-15.379 15.353-18.404-12.725-0.9172-5.5862 14.135-15.488zm21.428 23.874 3.7684 23.76-16.287-11.26 12.519-12.5zm-104.38 0.045 12.474 12.455-16.228 11.222 3.7542-23.677zm33.612 3.484-3.3536 20.437-10.72-10.703 14.073-9.7338zm37.172 0.0379 14.019 9.6935-10.679 10.663-3.3394-20.356zm17.742 12.267 20.631 14.268 1.1542 7.2855-13.512 12.703-20.676-13.981-1.1115-6.7807 13.514-13.495zm-72.713 0.003 13.559 13.535-1.0997 6.7002-20.733 14.019-13.469-12.663 0.8532-5.3776 0.3152-1.9861v-0.002l20.574-14.225zm36.383 23.364 1.1969 7.2998v-0.009l3.7044 22.572h-9.8026l4.9013-29.863zm-24.959 3.1877-0.3532 2.1473-3.3749 20.565-12.492-11.746 13.595-9.1911 2.626-1.7752zm49.925 0.0379 16.164 10.928-12.45 11.706-3.7139-22.634zm34.001 0.31996 3.0289 19.1-13.58-9.1816 10.552-9.9187zm-117.94 0.0379 10.509 9.8808-13.526 9.1436 3.0171-19.024zm13.983 13.147 13.969 13.132h-32.121l0.154-0.96223 17.998-12.17zm89.929 0 18.055 12.206 0.147 0.92668h-32.171l13.969-13.132zm-125.32 37.248h71.519 17.718 81.807l-2.0975 6.027h-166.85l-2.0975-6.027zm9.4257 30.142h1.268l4.6476 4.6406-5.9156 5.5388v-10.179zm3.0882 0h7.7903l-4.0196 3.7613-3.7707-3.7613zm9.6745 0h0.7537v10.407l-5.7474-5.7355 4.9937-4.6714zm2.6568 0h1.268l4.6477 4.6406-5.9157 5.5388v-10.179zm3.0882 0h7.7904l-4.0196 3.7613-3.7708-3.7613zm9.6769 0h0.7513v10.405l-5.745-5.7331 4.9937-4.6714zm2.6545 0h1.268l4.6476 4.6406-5.9156 5.5388v-10.179zm3.0882 0h7.7903l-4.0196 3.7613-3.7707-3.7613zm9.6745 0h0.7537v10.405l-5.7474-5.7331 4.9937-4.6714zm2.6568 0h1.268l4.65 4.6406-5.918 5.5388v-10.179zm3.0882 0h7.7904l-4.0196 3.7613-3.7708-3.7613zm9.6746 0h0.7536v10.407l-5.7473-5.7355 4.9937-4.6714zm2.6591 0h1.268l4.6477 4.6406-5.9157 5.5388v-10.179zm3.0882 0h7.7904l-0.41 0.38396-3.6096 3.3773-3.7708-3.7613zm9.6746 0h0.7537v10.407l-3.0479-3.0408-2.6995-2.6948 2.6995-2.5265 2.2942-2.1449zm2.6568 0h1.268l4.65 4.6429-5.918 5.5364v-10.179zm3.0882 0h7.7903l-4.0196 3.7613-3.7707-3.7613zm9.6745 0h0.7537v10.407l-5.7474-5.7355 4.9937-4.6714zm2.6545 0h1.268l4.6524 4.6429-5.9204 5.5364v-10.179zm3.0905 0h7.7904l-4.0196 3.7613-3.7708-3.7613zm9.6746 0h0.7537v10.407l-5.7474-5.7355 4.9937-4.6714zm2.6568 0h1.268l4.6524 4.6429-5.9204 5.5364v-10.179zm3.0882 0h7.7903l-4.0196 3.7613-3.7707-3.7613zm9.6745 0h0.7537v10.407l-5.7474-5.7355 4.9937-4.6714zm2.6569 0h1.2679l4.6524 4.6429-5.9203 5.5364v-10.179zm3.0881 0h7.7928l-4.0196 3.7613-3.7732-3.7613zm9.677 0h0.7536v10.407l-5.7473-5.7355 4.9937-4.6714zm2.6544 0h1.268l4.6524 4.6429-5.9204 5.5364v-10.179zm3.0882 0h7.7927l-4.022 3.7613-3.7707-3.7613zm9.6769 0h0.7537v10.407l-5.7474-5.7355 4.9937-4.6714zm-153.45 4.4462v5.9607l-1.2182-1.2158 1.2182-4.7448zm156.1 0.39579 1.1068 4.304-1.1068 1.0333v-5.3374zm-147.37 0.70865 5.7806 5.7687-5.7522 5.38-5.7805-5.7663 5.7497-5.3824zm15.422 0 5.7806 5.7687-5.7521 5.38-5.7806-5.7663 5.7521-5.3824zm15.42 0 5.7805 5.7687-5.7521 5.38-5.7805-5.7663 5.7521-5.3824zm15.42 0 5.7806 5.7687-5.7521 5.38-5.7806-5.7663 5.7521-5.3824zm15.42 0 3.6404 3.6309v0.003l2.1425 2.1354-2.1425 2.0027-3.6096 3.3773-5.7806-5.7663 5.7498-5.3824zm15.422 0 5.7805 5.7687-5.7521 5.3824-5.7829-5.7687 5.7545-5.3824zm15.42 0 5.7806 5.7687-5.7521 5.3824-5.7829-5.7687 5.7544-5.3824zm15.42 0 5.7805 5.7687-5.7521 5.3824-5.7805-5.7687 5.7521-5.3824zm15.42 0 5.7806 5.7687-5.7497 5.3824-5.783-5.7687 5.7521-5.3824zm15.42 0 5.7829 5.7687-5.7545 5.3824-5.7805-5.7687 5.7521-5.3824zm10.061 5.015 0.2607 1.0215-0.6542-0.65413 0.3935-0.36735zm-159.16 0.0711 0.685 0.68258-1.1329 1.0594 0.4479-1.742zm3.6309 1.1732 5.7806 5.7687-5.918 5.5388v-11.177l0.1374-0.1303zm15.42 0 5.7782 5.7687-5.918 5.5388v-11.177l0.1374-0.1303zm15.42 0 5.7782 5.7687-5.918 5.5388v-11.177l0.1374-0.1303zm15.422 0 5.7805 5.7687-5.9204 5.5388v-11.177l0.1399-0.1303zm15.42 0 5.7806 5.7687-5.5531 5.1952-0.365 0.0125v-10.845l0.1375-0.1303zm15.42 0 5.7805 5.7687-5.1335 4.8041-0.7845-0.0261v-10.416l0.1374-0.13029zm15.42 0 5.7806 5.7687-5.6479 5.2828-0.2725-0.009v-10.912l0.1398-0.1303zm15.422 0 5.7806 5.7687-5.9204 5.5388v-11.177l0.1399-0.1303zm15.42 0 5.7805 5.7687-5.9203 5.5388v-11.177l0.1398-0.1303zm15.42 0 5.7806 5.7687-5.9204 5.5388v-11.177l0.1399-0.1303zm15.42 0 2.2207 2.216 1.4244 5.5507-3.7849 3.5408v-11.177l0.1398-0.1303zm-156.24 0.42187v11.113l-3.8655-3.8584 1.23-4.7875v-0.005l2.6332-2.4625zm15.42 0v11.113l-5.7474-5.7355 5.7474-5.3776zm46.259 0v10.615h-0.026l-0.455 0.0136-5.2663-5.252 5.7474-5.3776zm15.422 0v10.118l-0.967 0.0308-2.0809-2.0762-2.6995-2.6948 2.6995-2.5265 3.0479-2.8512zm15.42 0v10.561l-0.5735-0.019-5.1739-5.1644 5.7474-5.3776zm15.42 0v11.056l-0.059-0.003-5.6881-5.6763 5.7473-5.3776zm15.42 0v11.113l-5.7474-5.7355 5.7474-5.3776zm15.422 0v11.113l-5.7473-5.7355 5.7473-5.3776zm15.42 0v11.113l-5.7474-5.7355 5.7474-5.3776zm-123.36 0.002v11.108l-5.745-5.7332 5.745-5.3753zm15.42 0v11.108l-5.7474-5.7332 5.7474-5.3753zm-37.527 6.2546 3.8158 3.8087 2.2207 2.216h-12.476l6.437-6.0247zm15.422 0 6.0389 6.0247h-12.478l6.4394-6.0247zm15.42 0 4.9226 4.9131-1.5903 0.0498-1.4007 0.045-7.5439 0.24175 5.6123-5.2497zm15.42 0 4.4415 4.432-9.5039 0.30574 5.0624-4.7377zm15.42 0 3.6404 3.6309 0.3199 0.31757-0.3199 0.0125-8.153 0.26308 4.5126-4.2234zm15.422 0 4.2329 4.2234-4.7259-0.15167-3.7328-0.1185 4.2258-3.9532zm15.42 0 4.7472 4.7354-9.4873-0.30338 4.7401-4.432zm15.42 0 5.2591 5.2497-10.509-0.33893 5.2497-4.9108zm15.42 0 6.0389 6.0247h-12.478l6.4394-6.0247zm15.42 0 6.0389 6.0247h-12.478l6.4394-6.0247zm-151.75 2.4435 3.5882 3.5811h-4.5078l0.9196-3.5811zm164.49 0.064 0.9054 3.5172h-4.6643l3.7589-3.5172zm-164.5 7.378h30.088l-16.583 11.239-13.502-11.239zm134.12 0h30.092l-13.505 11.239-16.588-11.239zm-99.966 1.9079-3.0147 17.51-0.9788 5.681-13.569-11.291 17.562-11.9zm96.236 0.22278 17.23 11.677-13.313 11.078-3.9177-22.755zm36.688 0.50245 6.1266 23.85-19.174-12.993 13.047-10.857zm-169.7 0.20146 12.805 10.656-18.818 12.751 6.0128-23.407zm15.891 13.225 15.602 12.986-22.798 13.365-14.059-11.95 21.252-14.4zm137.68 0 21.252 14.4-14.059 11.952-22.8-13.365 15.607-12.988zm-68.691 2.0169 26.561 0.8532 17.602 102.2h-88.329l17.605-102.2 22.613-0.72522 3.9485-0.12802zm92.676 15.121 5.7639 22.433-19.029-11.153 13.265-11.279zm-185.41 0.20622 13.028 11.073-18.686 10.95 5.6573-22.022zm39.17 0.22277-0.2678 1.5548-3.9414 22.876-15.294-13 19.503-11.431zm107.16 0.18961 19.176 11.241-15.038 12.784-4.1381-24.025zm-130.19 13.308 16.906 14.37-22.091 11.848-17.034-13.192 22.219-13.026zm152.89 0 22.222 13.026-17.034 13.192-22.091-11.848 16.903-14.37zm24.172 16.394 5.9607 23.205-21.224-11.383 15.263-11.822zm-200.99 0.1896 15.017 11.632-20.882 11.198 5.8659-22.831zm41.459 1.8273-0.7395 4.2898-3.1213 18.124-15.519-12.019 19.38-10.395zm118.14 0.17302 19.058 10.222-15.261 11.819-3.7969-22.041zm-141.25 12.22 17.116 13.253-25.39 13.315-17.318-12.628 0.064-0.24885 25.528-13.692zm164.03 0 25.762 13.817-17.489 12.751-25.388-13.315 17.114-13.253zm-146.01 17.138-3.7471 21.764-0.628 3.6451-18.437-13.443 22.812-11.966zm128.32 0.16826 22.494 11.796-18.178 13.258-4.3158-25.054zm44.569 0.47639 5.5056 21.428-20.295-10.644 14.789-10.784zm-217.53 0.18012 14.543 10.604-19.956 10.464 5.4132-21.067zm18.017 13.14 16.6 12.104h-39.679l23.08-12.104zm181.24 0 23.08 12.104h-39.677l16.598-12.104zm-244.2 36.219h7.3613 7.6577v26.526h-15.019v-26.526zm17.164 0h22.88v26.526h-22.88v-26.526zm25.023 0h22.883v26.526h-22.883v-26.526zm25.025 0h22.88v26.526h-22.88v-26.526zm25.025 0h13.17 9.7101v26.526h-22.88v-26.526zm25.023 0h22.883v26.526h-22.883v-26.526zm25.025 0h22.883v26.526h-22.883v-26.526zm25.025 0h22.88v26.526h-22.88v-26.526zm25.023 0h22.88v26.526h-22.88v-26.526zm25.025 0h22.88v26.526h-22.88v-26.526zm25.023 0h22.883v26.526h-22.883v-26.526zm25.025 0h22.88v26.526h-22.88v-26.526zm25.025 0h7.66 7.3614v26.526h-15.021v-26.526zm-291.52 50.641h5.0695l-5.0695 4.7449v-4.7449zm8.1696 0h12.32l-6.3565 5.9488-5.963-5.9488zm15.422 0h12.32l-6.3588 5.9488-5.9607-5.9488zm15.42 0h12.32l-6.3589 5.9488-5.9607-5.9488zm15.42 0h12.32l-6.3565 5.9488-5.963-5.9488zm15.42 0h12.32l-6.3565 5.9488-5.9631-5.9488zm15.42 0h12.322l-6.3589 5.9488-5.963-5.9488zm15.42 0h12.322l-6.3588 5.9488-5.9631-5.9488zm15.42 0h12.322l-6.3589 5.9488-5.963-5.9488zm15.422 0h12.32l-6.3588 5.9488-5.9607-5.9488zm15.42 0h12.322l-6.3613 5.9488-4.0456-4.0362-1.915-1.9126zm15.42 0h12.322l-6.3588 5.9488-5.9631-5.9488zm15.42 0h12.32l-6.3565 5.9488-5.963-5.9488zm15.422 0h12.32l-6.3588 5.9488-5.9607-5.9488zm15.42 0h12.32l-6.3589 5.9488-5.9607-5.9488zm15.42 0h12.32l-6.3565 5.9488-5.963-5.9488zm15.42 0h12.32l-6.3565 5.9488-5.9631-5.9488zm15.422 0h12.32l-6.3589 5.9488-5.9606-5.9488zm15.42 0h12.32l-6.3588 5.9488-5.9607-5.9488zm15.417 0h12.322l-6.3589 5.9488-5.963-5.9488zm15.422 0h4.4984v4.4889l-4.4984-4.4889zm-293.88 0.922 5.918 5.9061-5.918 5.5365v-11.443zm15.42 0 5.9181 5.9061-5.9181 5.5365v-11.443zm15.42 0 5.918 5.9061-5.918 5.5365v-11.443zm15.42 0 5.9204 5.9061-5.9204 5.5365v-11.443zm15.42 0 5.9204 5.9061-5.9204 5.5365v-11.443zm15.42 0 5.9204 5.9061-5.9204 5.5365v-11.443zm15.422 0 5.918 5.9061-5.918 5.5365v-11.443zm15.42 0 5.9204 5.9061-5.9204 5.5365v-11.443zm15.42 0 5.9203 5.9061-5.9203 5.5365v-11.443zm15.42 0 2.8133 2.8061 3.1071 3.1-5.9204 5.5365v-11.443zm15.42 0 5.9203 5.9061-5.9203 5.5365v-11.443zm15.422 0 5.918 5.9061-5.918 5.5365v-11.443zm15.42 0 5.9181 5.9061-5.9181 5.5365v-11.443zm15.42 0 5.918 5.9061-5.918 5.5365v-11.443zm15.42 0 5.9203 5.9061-5.9203 5.5365v-11.443zm15.422 0 5.918 5.9061-5.918 5.5365v-11.443zm15.417 0 5.9204 5.9061-5.9204 5.5365v-11.443zm15.422 0 5.918 5.9061-5.918 5.5365v-11.443zm15.42 0 5.9204 5.9061-5.9204 5.5365v-11.443zm15.42 0 5.6881 5.6739 0.1612 0.2986-5.8493 5.4701v-11.443zm-294.88 0.5593v11.111l-5.7473-5.7332 5.7473-5.3776zm15.42 0v11.111l-5.7474-5.7332 5.7474-5.3776zm15.42 0v11.111l-5.7473-5.7332 5.7473-5.3776zm15.42 0v11.111l-5.7474-5.7332 5.7474-5.3776zm15.42 0v11.111l-5.745-5.7332 5.745-5.3776zm15.422 0v11.111l-5.7474-5.7332 5.7474-5.3776zm15.42 0v11.111l-5.7474-5.7332 5.7474-5.3776zm15.42 0v11.111l-5.7474-5.7332 5.7474-5.3776zm15.42 0v11.111l-5.7474-5.7332 5.7474-5.3776zm15.422 0v11.111l-5.7473-5.7332 5.7473-5.3776zm15.42 0v11.111l-5.7474-5.7332 5.7474-5.3776zm15.42 0v11.111l-5.7473-5.7332 5.7473-5.3776zm15.42 0v11.111l-5.7474-5.7332 5.7474-5.3776zm15.422 0v11.111l-5.7497-5.7332 5.7497-5.3776zm15.417 0v11.111l-5.7474-5.7332 5.7474-5.3776zm15.42 0v11.111l-5.745-5.7332 5.745-5.3776zm15.422 0v11.111l-5.7474-5.7332 5.7474-5.3776zm15.42 0v11.111l-5.7474-5.7332 5.7474-5.3776zm15.42 0v11.111l-5.7474-5.7332 5.7474-5.3776zm15.42 0v11.111l-5.7474-5.7332 5.7474-5.3776zm-284.24 6.2569 5.7782 5.7664-5.7498 5.3824-5.7782-5.7664 2.8749-2.6923 2.8749-2.6901zm15.42 0 5.7782 5.7664-5.7497 5.3824-5.7806-5.7664 3.7921-3.5503 1.96-1.8321zm15.42 0 5.7782 5.7664-5.7498 5.3824-5.7782-5.7664 2.8749-2.6923 2.8749-2.6901zm15.42 0 5.7782 5.7664-5.7474 5.3824-5.7805-5.7664 2.8748-2.6923 2.8749-2.6901zm15.422 0 5.7781 5.7664-5.7497 5.3824-5.7806-5.7664 2.8749-2.6923 2.8773-2.6901zm15.42 0 5.7782 5.7664-5.7498 5.3824-5.7805-5.7664 2.8749-2.6923 2.8772-2.6901zm15.417 0 5.7805 5.7664-5.7497 5.3824-5.7782-5.7664 5.7474-5.3824zm15.422 0 5.7782 5.7664-5.7498 5.3824-5.7781-5.7664 2.8725-2.6923 2.8772-2.6901zm15.42 0 5.7806 5.7664-5.7521 5.3824-5.7782-5.7664 2.8725-2.6923 2.8772-2.6901zm15.42 0 5.7829 5.7688-5.7545 5.38-4.0456-4.0362-1.7326-1.7302 1.7326-1.6258 4.0172-3.7566zm15.42 0 5.7806 5.7688-5.7497 5.38-5.7806-5.7687 5.7497-5.3801zm15.422 0 5.7805 5.7688-5.7521 5.38-5.7805-5.7687 5.7521-5.3801zm15.42 0 5.7806 5.7688-5.7521 5.38-5.7806-5.7687 5.7521-5.3801zm15.42 0 5.7805 5.7688-5.7521 5.38-5.7805-5.7687 5.7521-5.3801zm15.42 0 5.7806 5.7688-5.7498 5.38-5.7829-5.7687 5.7521-5.3801zm15.422 0 5.7805 5.7688-5.7521 5.38-5.7829-5.7687 5.7545-5.3801zm15.42 0 5.7806 5.7688-5.7522 5.38-5.7829-5.7687 5.7545-5.3801zm15.42 0 5.7805 5.7688-5.7521 5.38-5.7806-5.7687 5.7522-5.3801zm15.42 0 5.7806 5.7688-5.7522 5.38-5.7805-5.7687 5.7521-5.3801zm-292.71 0.2655 5.5103 5.5009-5.7473 5.3824-3.6618-3.6523 3.3655-6.2379 0.5333-0.9907zm307.78 0.062 4.0054 7.4325-3.6262 3.3892-5.7806-5.7687 5.4014-5.053zm-299.32 5.9323 5.7782 5.7687-5.918 5.5388v-11.177l0.1374-0.1303zm15.42 0 5.7806 5.7687-5.9181 5.5388v-11.177l0.1375-0.1303zm15.42 0 5.7805 5.7687-5.918 5.5388v-11.177l0.1374-0.1303zm15.422 0 5.7805 5.7687-5.9204 5.5388v-11.177l0.1399-0.1303zm15.42 0 5.7806 5.7687-5.9204 5.5388v-11.177l0.1398-0.1303zm15.42 0 5.7805 5.7687-5.9204 5.5388v-11.177l0.1399-0.1303zm15.42 0 5.7806 5.7687-5.918 5.5388v-11.177l0.1374-0.1303zm15.422 0 5.7806 5.7687-5.9204 5.5388v-11.177l0.1399-0.1303zm15.42 0 5.7805 5.7687-5.9203 5.5388v-11.177l0.1398-0.1303zm15.42 0 5.7806 5.7687-3.1071 2.9056-2.8133 2.6332v-11.177l0.1399-0.1303zm15.42 0 5.7805 5.7687-5.9203 5.5388v-11.177l0.1398-0.1303zm15.422 0 5.7782 5.7687-5.918 5.5388v-11.177l0.1398-0.1303zm15.417 0 5.7806 5.7687-5.9181 5.5388v-11.177l0.1375-0.1303zm15.42 0 5.7805 5.7687-5.918 5.5388v-11.177l0.1374-0.1303zm15.422 0 5.7805 5.7687-5.9203 5.5388v-11.177l0.1398-0.1303zm15.42 0 5.7806 5.7687-5.918 5.5388v-11.177l0.1374-0.1303zm15.42 0 5.7805 5.7687-5.9204 5.5388v-11.177l0.1399-0.1303zm15.42 0 5.7806 5.7687-5.918 5.5388v-11.177l0.1374-0.1303zm15.422 0 5.7806 5.7687-5.9204 5.5388v-11.177l0.1399-0.1303zm15.42 0 5.7805 5.7687-5.9203 5.5388v-11.177l0.1398-0.1303zm-295.02 0.4218v10.912h-0.1991l-5.5482-5.534 5.7473-5.3777zm15.42 0v10.912h-0.1991l-5.5483-5.534 5.7474-5.3777zm15.42 0v10.912h-0.1991l-5.5482-5.534 5.7473-5.3777zm15.42 0v10.912h-0.1991l-5.5483-5.534 5.7474-5.3777zm15.42 0v10.912h-0.199l-5.546-5.534 5.745-5.3777zm15.422 0v10.912h-0.1991l-5.5483-5.534 5.7474-5.3777zm15.42 0v10.912h-0.1991l-5.5483-5.534 5.7474-5.3777zm15.42 0v10.912h-0.1991l-5.5483-5.534 5.7474-5.3777zm15.42 0v10.912h-0.1991l-5.5483-5.534 5.7474-5.3777zm15.422 0v10.912h-0.1991l-5.5482-5.534 5.7473-5.3777zm15.42 0v10.912h-0.2015l-5.5459-5.534 5.7474-5.3777zm15.42 0v10.912h-0.2014l-5.5459-5.534 5.7473-5.3777zm15.42 0v10.912h-0.2015l-5.5459-5.534 5.7474-5.3777zm15.422 0v10.912h-0.2014l-5.5483-5.534 5.7497-5.3777zm15.417 0v10.912h-0.2015l-5.5459-5.534 5.7474-5.3777zm15.42 0v10.912h-0.2014l-5.5436-5.534 5.745-5.3777zm15.422 0v10.912h-0.2015l-5.5459-5.534 5.7474-5.3777zm15.42 0v10.912h-0.2014l-5.546-5.534 5.7474-5.3777zm15.42 0v10.912h-0.2015l-5.5459-5.534 5.7474-5.3777zm15.42 0v10.912h-0.2014l-5.546-5.534 5.7474-5.3777zm-303.94 1.9956 3.3584 3.3513-5.9323 5.5506v-4.1215l2.5739-4.7804zm316.95 0.2536 2.4032 4.4581v4.2044h-0.2014l-5.5459-5.534 3.3441-3.1285zm-312.69 4.0054 4.6666 4.6571h-9.6414l4.9748-4.6571zm15.422 0 4.6642 4.6571h-9.6413l4.9771-4.6571zm15.42 0 4.6643 4.6571h-9.6414l4.9771-4.6571zm15.42 0 4.6642 4.6571h-1.6898l0.1872-0.5664-1.2869 0.5664h-6.8518l4.9771-4.6571zm15.42 0 4.6643 4.6571h-9.6414l4.9771-4.6571zm15.422 0 4.6642 4.6571h-9.6437l4.9795-4.6571zm15.42 0 4.6643 4.6571h-9.6438l4.9795-4.6571zm15.417 0 4.6643 4.6571h-9.6414l4.9747-4.6571zm15.422 0 4.6643 4.6571h-9.6414l4.9771-4.6571zm15.42 0 4.6667 4.6571h-9.6437l4.977-4.6571zm15.42 0 4.6666 4.6571h-9.6437l4.9771-4.6571zm15.42 0 4.6667 4.6571h-9.6438l4.9771-4.6571zm15.422 0 4.6642 4.6571h-9.6413l4.9771-4.6571zm15.42 0 4.6667 4.6571h-9.6438l4.9771-4.6571zm15.42 0 4.6642 4.6571h-9.6413l4.9771-4.6571zm15.42 0 4.6643 4.6571h-9.6414l4.9771-4.6571zm15.422 0 4.6642 4.6571h-9.6414l4.9772-4.6571zm15.42 0 4.6643 4.6571h-6.8685l-1.0594-0.4361 0.147 0.4361h-1.8628l4.9794-4.6571zm15.42 0 4.6642 4.6571h-9.6413l4.9771-4.6571zm15.42 0 4.6643 4.6571h-9.6414l4.9771-4.6571zm15.42 0 4.6667 4.6571h-9.6437l4.977-4.6571zm8.5891 3.9793 0.365 0.6778h-0.365v-0.6778zm-325.72 0.045v0.6328h-0.3413l0.3413-0.6328zm-0.7087 4.5244h48.726l-31.225 13.734-17.5-13.734zm278.84 0h49.013l-17.05 13.149-31.962-13.149zm-4.1736 2.4554 32.607 13.412-20.188 15.569-1.4718-3.3039-9.4422-21.193-1.505-4.4841zm-277.74 0.038 16.569 13.002-30.906 13.592 14.336-26.594zm55.504 0.092-4.2803 12.765-7.7785 16.332-19.427-15.247 31.486-13.85zm278.01 0.2891 12.708 23.582-28.23-11.613 15.522-11.969zm-19.05 14.687 32.29 13.286-15.941 19.866-35.973-18.017 19.624-15.135zm-294.46 0.6352 18.46 14.486-36.44 18.252-7.5415-9.0963-7.5391-9.0986 33.06-14.543zm329.83 14.972 19.987 37.086-35.484-17.773 15.498-19.314zm-366.84 0.8532 15.486 18.688-35.01 17.534 19.524-36.221zm58.675 1.3723-2.3226 4.8752-1.3581 2.8511-0.5427 1.14-16.282 29.768-16.614-20.043 37.12-18.591zm250.33 0.1991 36.335 18.197-16.225 20.219-16.188-29.614-3.9224-8.8023zm39.864 19.965 36.428 18.245-17.963 15.386-33.968-14.313 15.502-19.318zm-330.86 0.199 15.86 19.136-33.927 14.296-6.2878-5.3848-11.672-10.002 17.982-9.0062 18.046-9.0394zm371.51 19.508 16.232 30.116-34.446-14.514 18.214-15.602zm-411.76 0.01 18.204 15.597-34.432 14.51 16.228-30.107zm58.099 2.9697-14.118 25.81-2.434 1.7326-16.09-13.784 32.643-13.758zm295.57 0.01 32.624 13.746-16.093 13.787-2.4246-1.7254-14.106-25.808zm36.598 15.422 34.541 14.557h-51.532l16.991-14.557zm-368.79 0 16.988 14.554h-51.53l0.9859-0.4147 33.555-14.14z"/>
</g>
</svg>
